{"title":"CNBC Titans - Steve Jobs (720p)","uid":6599835,"size":811251338,"categoryP":"video","categoryS":"hd___tv_shows","magnet":"?xt=urn:btih:53c98dd7c74f9d6c59be4cdb6e89a63ee95388ba&amp;dn=CNBC+Titans+-+Steve+Jobs+%28720p%29&amp;tr=udp%3A%2F%2Ftracker.openbittorrent.com%3A80&amp;tr=udp%3A%2F%2Fopen.demonii.com%3A1337&amp;tr=udp%3A%2F%2Ftracker.coppersurfer.tk%3A6969&amp;tr=udp%3A%2F%2Fexodus.desync.com%3A6969","seeders":1,"leechers":1,"uploader":"y2kviv69","files":1,"time":1313159153,"description":"General\nComplete name                    : CNBC Titans- Steve Jobs.mp4\nFormat                           : MPEG-4\nFormat profile                   : Base Media\nCodec ID                         : isom\nFile size                        : 774 MiB\nDuration                         : 43mn 6s\nOverall bit rate                 : 2 509 Kbps\nWriting application              : Lavf51.12.1\n\nVideo\nID                               : 1\nFormat                           : AVC\nFormat/Info                      : Advanced Video Codec\nFormat profile                   : &lt;a class=&quot;__cf_email__&quot; href=&quot;/cdn-cgi/l/email-protection&quot; data-cfemail=&quot;6d2f0c1e08010403082d2159435d&quot;&gt;[email&amp;#160;protected]&lt;/a&gt;&lt;script cf-hash='f9e31' type=&quot;text/javascript&quot;&gt;\n/* &lt;![CDATA[ */!function(){try{var t=&quot;currentScript&quot;in document?document.currentScript:function(){for(var t=document.getElementsByTagName(&quot;script&quot;),e=t.length;e--;)if(t[e].getAttribute(&quot;cf-hash&quot;))return t[e]}();if(t&amp;&amp;t.previousSibling){var e,r,n,i,c=t.previousSibling,a=c.getAttribute(&quot;data-cfemail&quot;);if(a){for(e=&quot;&quot;,r=parseInt(a.substr(0,2),16),n=2;a.length-n;n+=2)i=parseInt(a.substr(n,2),16)^r,e+=String.fromCharCode(i);e=document.createTextNode(e),c.parentNode.replaceChild(e,c)}}}catch(u){}}();/* ]]&gt; */&lt;/script&gt;\nFormat settings, CABAC           : No\nFormat settings, ReFrames        : 1 frame\nFormat settings, GOP             : M=1, N=12\nCodec ID                         : avc1\nCodec ID/Info                    : Advanced Video Coding\nDuration                         : 43mn 6s\nBit rate mode                    : Variable\nBit rate                         : 2 352 Kbps\nWidth                            : 1 280 pixels\nHeight                           : 720 pixels\nDisplay aspect ratio             : 16:9\nFrame rate mode                  : Variable\nFrame rate                       : 29.970 fps\nMinimum frame rate               : 14.985 fps\nMaximum frame rate               : 29.970 fps\nColor space                      : YUV\nChroma subsampling               : 4:2:0\nBit depth                        : 8 bits\nScan type                        : Progressive\nBits/(Pixel*Frame)               : 0.085\nStream size                      : 725 MiB (94%)\n\nAudio\nID                               : 2\nFormat                           : AAC\nFormat/Info                      : Advanced Audio Codec\nFormat profile                   : LC\nCodec ID                         : 40\nDuration                         : 43mn 6s\nBit rate mode                    : Variable\nBit rate                         : 152 Kbps\nChannel(s)                       : 2 channels\nChannel positions                : Front: L R\nSampling rate                    : 44.1 KHz\nCompression mode                 : Lossy\nStream size                      : 46.9 MiB (6%)\n\n\n\nScreens: http://imgden.com/13944/CNBC Titans-Steve Jobs_screens.jpg\n\nAlternative screens:http://bayimg.com/laJMaAAdI","torrent":{"xt":"urn:btih:53c98dd7c74f9d6c59be4cdb6e89a63ee95388ba","amp;dn":"CNBC+Titans+-+Steve+Jobs+%28720p%29","amp;tr":["udp%3A%2F%2Ftracker.openbittorrent.com%3A80","udp%3A%2F%2Fopen.demonii.com%3A1337","udp%3A%2F%2Ftracker.coppersurfer.tk%3A6969","udp%3A%2F%2Fexodus.desync.com%3A6969"],"infoHash":"53c98dd7c74f9d6c59be4cdb6e89a63ee95388ba","infoHashBuffer":{"type":"Buffer","data":[83,201,141,215,199,79,157,108,89,190,76,219,110,137,166,62,233,83,136,186]},"announce":[],"urlList":[]}}